# xmcd CD database file
#
# Track frame offsets:
#	187
#	15555
#	33997
#	52987
#	68982
#	95047
#	112690
#	125002
#	140187
#	157807
#	176922
#	195615
#	211922
#	231682
#	249412
#	267465
#	285507
#	305007
#	323370
#
# Disc length: 4572 seconds
#
# Revision: 4
# Processed by: cddbd v1.5.2PL0 Copyright (c) Steve Scherf et al.
# Submitted via: CDex 1.51
#
DISCID=1411da13
DTITLE=Various Artist - Motown 40 Forever [CD2]
DYEAR=1998
DGENRE=Other
TTITLE0=Superfreak [Rick James]
TTITLE1=Let It Whip [Dazz Band]
TTITLE2=Rub You The Right Way [Johnny Gill]
TTITLE3=Let's Get Serious [Jermaine Jackson]
TTITLE4=Fire and Desire [Teena Marie and Rick James]
TTITLE5=Somebody's Watching Me [Rockwell]
TTITLE6=My Girl [The Temptations]
TTITLE7=War [Edwin Starr]
TTITLE8=I'm Coming Out [Diana Ross]
TTITLE9=All Night Long (All Night) [Lionel Richie]
TTITLE10=All This Love [Debarge]
TTITLE11=Three Times A Lady [The Commodores]
TTITLE12=I Love Your Smile [Shanice]
TTITLE13=I'll Make Love To You [Boyz Ii Men]
TTITLE14=Superstition [Stevie Wonder]
TTITLE15=Let's Get It On [Marvin Gaye]
TTITLE16=Him Or Me [Today]
TTITLE17=Don't Look Any Further [Dennis Edwards]
TTITLE18=I Want You Back '98 (Featuring Black Rob)
EXTD=YEAR: 1998
EXTT0=Rick James\n
EXTT1=Dazz Band\n
EXTT2=Johnny Gill\n
EXTT3=Jermaine Jackson\n
EXTT4=Teena Marie and Rick James\n
EXTT5=Rockwell\n
EXTT6=The Temptations\n
EXTT7=Edwin Starr\n
EXTT8=Diana Ross\n
EXTT9=Lionel Richie\n
EXTT10=Debarge\n
EXTT11=The Commodores\n
EXTT12=Shanice\n
EXTT13=Boyz II Men\n
EXTT14=Stevie Wonder\n
EXTT15=Marvin Gaye\n
EXTT16=Today\n
EXTT17=Dennis Edwards\n
EXTT18=(Featuring Black Rob]\n
PLAYORDER=
